<?xml version="1.0" encoding="UTF-8" standalone="no"?>
<!-- Created with Inkscape (http://www.inkscape.org/) -->

<svg
   xmlns:dc="http://purl.org/dc/elements/1.1/"
   xmlns:cc="http://creativecommons.org/ns#"
   xmlns:rdf="http://www.w3.org/1999/02/22-rdf-syntax-ns#"
   xmlns:svg="http://www.w3.org/2000/svg"
   xmlns="http://www.w3.org/2000/svg"
   xmlns:sodipodi="http://sodipodi.sourceforge.net/DTD/sodipodi-0.dtd"
   xmlns:inkscape="http://www.inkscape.org/namespaces/inkscape"
   width="52.68837mm"
   height="52.935665mm"
   viewBox="0 0 186.69107 187.56732"
   id="svg2"
   version="1.1"
   inkscape:version="0.91 r13725"
   sodipodi:docname="logo-dotafix.svg">
  <defs
     id="defs4" />
  <sodipodi:namedview
     id="base"
     pagecolor="#ffffff"
     bordercolor="#666666"
     borderopacity="1.0"
     inkscape:pageopacity="0.0"
     inkscape:pageshadow="2"
     inkscape:zoom="1.4"
     inkscape:cx="472.35621"
     inkscape:cy="-32.941824"
     inkscape:document-units="px"
     inkscape:current-layer="layer1"
     showgrid="false"
     inkscape:window-width="1600"
     inkscape:window-height="1138"
     inkscape:window-x="-8"
     inkscape:window-y="-8"
     inkscape:window-maximized="1"
     fit-margin-top="0"
     fit-margin-left="0"
     fit-margin-right="0"
     fit-margin-bottom="0" />
  <metadata
     id="metadata7">
    <rdf:RDF>
      <cc:Work
         rdf:about="">
        <dc:format>image/svg+xml</dc:format>
        <dc:type
           rdf:resource="http://purl.org/dc/dcmitype/StillImage" />
        <dc:title></dc:title>
      </cc:Work>
    </rdf:RDF>
  </metadata>
  <g
     inkscape:label="Layer 1"
     inkscape:groupmode="layer"
     id="layer1"
     transform="translate(-2.3685607,-3.2839643)">
    <path
       style="fill:#ad3c28"
       id="path3367"
       d="m 178.68377,75.675386 c 2.39233,2.556945 2.39233,6.508588 0,9.297978 l -11.74379,12.784724 c -2.39228,2.556942 -6.08941,2.556942 -8.69913,0 l -2.60978,-3.021854 c -1.95726,-1.85959 -2.82716,-5.34633 -1.73981,-6.973479 1.95732,-1.394687 1.30486,-5.578781 -2.39227,-9.297978 -5.21944,-5.811221 -11.9613,-6.043678 -14.57095,-3.02183 -1.08748,0.929788 -4.56711,4.881431 -4.56711,4.881431 l -16.09338,-16.9688 2.60978,-2.789394 c 0,0 0.6524,-0.697349 1.95732,-2.324493 5.00199,-5.346335 -0.21757,-11.390019 -0.21757,-11.390019 C 106.48108,31.974908 86.690497,32.207359 86.690497,32.207359 l -0.217386,-5.346341 c 39.798419,-10.92511 54.804449,7.67084 60.241329,13.482079 l 11.52641,12.319808 c 2.82717,3.021848 0,11.622468 4.13209,16.5039 1.95726,2.092047 4.56704,3.021848 6.5243,3.021848 2.17482,-2.092047 5.65444,-1.394698 7.39426,0.697349 z m -70.68045,31.380664 38.27623,36.72701 c 5.43695,5.81124 5.21944,15.10921 -0.2175,21.15288 -5.65451,5.81124 -14.35352,5.81124 -19.79052,-0.23244 L 91.257595,125.18711 58.635861,167.26044 c -3.044736,3.48674 -8.48168,3.48674 -11.743796,0 l -8.481659,-9.29798 c -3.262188,-3.25428 -3.262188,-9.06551 0,-12.55225 L 75.816595,108.2183 57.765951,89.62235 C 51.894057,83.578672 48.414367,81.719076 43.629883,83.34622 38.845352,85.205816 32.10353,85.205816 25.796684,80.789282 12.313028,71.491298 13.182944,54.057603 13.182944,54.057603 l 1.087386,-1.859596 c 0,0 12.178782,8.368177 13.701102,9.297976 1.957302,1.627144 8.699119,4.881431 14.788565,-5.113887 6.306834,-9.995327 1.087332,-16.271457 -0.652452,-17.433704 -1.522344,-0.9298 -13.701095,-9.530429 -13.701095,-9.530429 l 1.087326,-1.859596 c 0,0 14.136107,-7.670822 27.402271,0.697355 0,0.464892 3.262116,2.556945 4.567036,3.719186 8.481672,8.135731 8.481672,17.201257 6.95931,24.639639 -1.304862,6.741031 0,9.065518 5.00193,14.876751 l 18.050718,19.293305 21.530329,-23.477394 15.65837,17.201264 z m 33.27424,52.76601 c 2.82723,-2.78939 2.82723,-8.13572 0,-11.15757 -2.82728,-3.02184 -7.39426,-3.02184 -10.43899,0 -2.60972,3.02185 -2.60972,8.13572 0,10.92513 3.04473,3.02183 7.61171,3.48673 10.43899,0.23244 z m -31.30694,30.24879 2.13071,-0.93341 1.09629,-2.81028 c 0.60296,-1.54564 1.15025,-2.86351 1.2162,-2.92859 0.066,-0.0651 1.42725,0.17367 3.0251,0.53056 2.54429,0.56827 2.95254,0.61825 3.28637,0.40235 0.21341,-0.13803 0.65734,-0.21426 1.00865,-0.17322 0.55134,0.0644 0.72352,-0.0251 1.4191,-0.7378 l 0.79163,-0.81112 1.41339,1.27416 c 0.8113,0.73138 1.47802,1.20539 1.5651,1.11271 0.0834,-0.0888 0.54641,-0.76651 1.02882,-1.50603 0.70897,-1.08683 0.97031,-1.35105 1.36328,-1.37834 l 0.48618,-0.0338 0,1.3335 c 0,0.73344 0.0424,1.33352 0.0943,1.33352 0.0808,0 2.21278,-1.628 3.17952,-2.42789 0.38676,-0.32001 1.02951,-0.34328 1.02686,-0.0372 -0.001,0.12326 -0.12222,0.62061 -0.26924,1.10523 -0.14701,0.48463 -0.2427,0.90572 -0.21265,0.93576 0.0301,0.0301 0.84428,-0.4734 1.8094,-1.1188 0.96512,-0.64538 1.78882,-1.13938 1.83043,-1.09777 0.0416,0.0417 -0.13005,0.62224 -0.3815,1.29024 -0.3408,0.90547 -0.39165,1.18946 -0.19976,1.11581 0.14156,-0.0543 0.75241,-0.19615 1.35744,-0.31519 0.86025,-0.16923 1.1895,-0.33073 1.51045,-0.74083 l 0.41042,-0.5244 1.81201,0.45931 c 0.9966,0.25264 1.88982,0.45933 1.98492,0.45933 0.0951,0 0.43177,-0.40338 0.74814,-0.89639 0.31636,-0.49302 0.63165,-0.89639 0.70063,-0.89639 0.069,0 0.38969,0.27266 0.71269,0.6059 l 0.58726,0.60591 1.27938,-0.4914 1.27938,-0.4914 1.08179,0.49401 c 0.59498,0.27174 1.70702,0.78289 2.47119,1.13593 l 1.3894,0.64188 0,-1.25041 0,-1.25042 0.59394,0 c 0.42589,0 0.73971,0.15215 1.1092,0.53783 0.28341,0.29581 0.58156,0.53783 0.66257,0.53783 0.081,0 0.48139,-0.24202 0.88975,-0.53783 0.47322,-0.3428 0.96023,-0.53783 1.34303,-0.53783 0.33032,0 0.60057,0.0373 0.60057,0.0829 0,0.0456 -0.16922,0.53522 -0.37606,1.08804 -0.20684,0.55282 -0.33567,1.04551 -0.28629,1.0949 0.0494,0.0494 0.41708,-0.0772 0.81712,-0.28128 0.66903,-0.34133 1.04051,-0.3713 4.63377,-0.37396 l 3.90644,-0.003 1.77702,-0.80386 c 0.97736,-0.44214 1.84184,-0.80388 1.92106,-0.80388 0.0792,0 0.1984,0.40977 0.26484,0.91062 l 0.1208,0.91063 2.08153,-0.11826 c 2.06993,-0.11758 2.09082,-0.11475 3.74828,0.5082 l 1.66674,0.62645 1.08114,-1.374 c 0.59463,-0.75569 1.15245,-1.39986 1.23961,-1.43146 0.0872,-0.0316 0.63123,0.21961 1.20903,0.55825 l 1.05055,0.61571 1.67397,-0.67618 c 0.92069,-0.37191 1.72784,-0.78448 1.79367,-0.91683 0.11138,-0.22388 -0.27846,-37.24846 -0.39331,-37.35483 -0.0287,-0.0266 -0.63709,-0.005 -1.35196,0.0466 -0.93265,0.0681 -1.29977,0.16409 -1.29977,0.33976 0,0.3301 -0.29461,0.31151 -0.42441,-0.0268 -0.0573,-0.14938 -0.31341,-0.35113 -0.56906,-0.44833 -0.32456,-0.1234 -0.43672,-0.27135 -0.37169,-0.49032 0.0512,-0.17248 0.2684,-1.30517 0.48263,-2.51708 l 0.3895,-2.20347 -0.63059,-1.39924 -0.6306,-1.39924 0.32844,-4.37359 0.32845,-4.37358 -1.00542,-1.33582 c -0.89633,-1.19088 -0.97205,-1.35639 -0.6979,-1.52543 0.16913,-0.10428 1.40964,-0.91568 2.75668,-1.80311 l 2.44916,-1.6135 -0.0388,-6.27473 c -0.0213,-3.45109 -0.0898,-8.29956 -0.15216,-10.77437 l -0.11342,-4.499652 -0.79417,0.169382 c -0.4368,0.09316 -0.84544,0.118114 -0.9081,0.05546 -0.0627,-0.06266 0.26984,-0.8865 0.7389,-1.83075 0.46906,-0.944251 0.82855,-1.73832 0.79888,-1.764596 -0.0297,-0.0263 -0.76858,0.350828 -1.64201,0.838004 -0.87343,0.487182 -1.61886,0.85497 -1.65652,0.81731 -0.0377,-0.03765 -0.21397,-1.654245 -0.39179,-3.592418 l -0.32332,-3.523951 1.66206,-1.841244 c 2.24881,-2.491239 2.38727,-2.902192 2.38727,-7.085617 l 0,-3.113065 -0.53476,-0.665437 c -0.29412,-0.36599 -0.68651,-1.107507 -0.87197,-1.647809 l -0.33722,-0.982371 0.81173,-1.613501 0.81173,-1.613501 -0.30385,-26.443484 c -0.16705,-14.54379 -0.30129,-27.310615 -0.29824,-28.370596 l 0.005,-1.927237 1.50211,0 c 1.49413,0 1.50327,-0.003 1.72105,-0.528565 0.19329,-0.46666 0.14136,-0.761405 -0.44349,-2.516559 -0.53408,-1.602786 -0.71992,-1.970909 -0.95912,-1.899796 -1.16737,0.347046 -2.04325,0.489488 -2.16893,0.352729 -0.0802,-0.08727 -0.33026,-0.868529 -0.55567,-1.7361325 -0.52627,-2.0255948 -0.85471,-2.3128159 -2.37227,-2.0745974 -2.11346,0.3317595 -4.32675,-0.3847961 -6.09091,-1.971949 -1.43924,-1.2948345 -1.93831,-1.6367473 -2.38907,-1.6367473 -0.54673,0 -0.62095,0.1597785 -0.44226,0.9520612 0.0823,0.3648424 0.0969,0.6959208 0.0325,0.7357265 -0.0644,0.0398 -1.49816,0.1308131 -3.18611,0.2022314 l -3.069,0.1298509 -0.81646,-0.5617373 c -0.44905,-0.3089615 -0.88515,-0.5617433 -0.9691,-0.5617433 -0.084,0 -0.4728,0.5241966 -0.86409,1.1648819 -0.3913,0.6406853 -0.76527,1.1650731 -0.83106,1.1653062 -0.0658,2.33e-4 -0.53163,-0.4634573 -1.03523,-1.0304235 l -0.91563,-1.0308478 -0.84719,0.9430435 -0.84717,0.9430434 -1.10367,-0.3388651 c -1.08113,-0.3319449 -1.18726,-0.3320166 -5.19906,-0.00359 l -4.09539,0.3352735 -0.82956,-0.9323704 -0.82955,-0.9323764 -0.12848,0.9341273 -0.12847,0.9341274 -2.67235,0 -2.67235,0 0,-0.9113412 0,-0.9113411 -0.43207,0.3286881 c -0.23764,0.1807778 -1.12078,0.9599433 -1.96254,1.7314836 l -1.53047,1.4027954 -7.31508,-0.1779632 -7.31509,-0.1779692 -1.3188,0.8166466 c -1.05272,0.6518782 -1.35058,0.7664667 -1.4763,0.5679523 -0.0866,-0.136789 -0.15873,-0.3168497 -0.16024,-0.4001482 -0.001,-0.083293 -0.17196,-0.7085241 -0.37877,-1.3894035 l -0.37601,-1.2379554 -1.46953,0 -1.46951,0 -0.79882,-0.9661284 c -0.77631,-0.9393936 -0.8381,-0.9741198 -2.23264,-1.255084 -0.78882,-0.1589239 -1.96589,-0.2888884 -2.61571,-0.2888107 l -1.1815,1.374e-4 -0.23854,0.9943827 c -0.13121,0.546911 -0.29941,1.0319951 -0.37379,1.0779679 -0.0744,0.045955 -0.40224,-0.4020784 -0.72856,-0.9956615 -0.32633,-0.593583 -0.71556,-1.112467 -0.86497,-1.1530734 -0.14941,-0.040636 -2.1369,-0.1278789 -4.41665,-0.1939309 l -4.144994,-0.1200982 -0.311441,1.2708769 -0.311448,1.270871 -0.863175,0 c -0.839385,0 -0.869145,-0.018525 -1.079946,-0.672292 -0.416851,-1.2927728 -0.310611,-1.2427483 -2.26061,-1.0644385 -1.34606,0.1230802 -1.989931,0.2773309 -2.739223,0.6562108 L 91.183631,5.2405074 89.706746,4.7412902 C 88.667113,4.3898697 87.417314,4.157932 85.485344,3.9578698 81.416232,3.5365071 82.028018,3.3390444 79.155263,6.0010459 76.692929,8.2827391 76.632758,8.3566136 75.979726,9.8998853 75.613623,10.76508 75.287797,11.542842 75.255671,11.628249 75.22352,11.713657 74.312962,11.489925 73.232149,11.13107 71.984728,10.71689 70.612278,10.407624 69.474258,10.284263 68.48823,10.177378 67.662279,10.072661 67.638817,10.051554 67.447653,9.879603 66.968927,6.6952457 67.065062,6.2350932 c 0.06626,-0.3171545 0.07744,-0.6196859 0.0248,-0.672292 -0.05259,-0.052588 -0.488257,-0.095645 -0.968118,-0.095645 -0.575255,0 -1.173768,-0.152679 -1.756935,-0.4481946 -0.836756,-0.4240161 -1.041951,-0.4480214 -3.803695,-0.4450095 -4.660591,0.00538 -5.601776,0.1565036 -8.119405,1.3062544 L 50.291496,6.8621654 45.754415,7.1801087 41.217328,7.4980459 40.065092,6.356052 38.912857,5.2140519 36.241234,5.5421245 33.569617,5.870197 32.608108,5.3549404 C 31.697621,4.8670297 31.643653,4.7987906 31.591047,4.0690759 31.545988,3.4444001 31.478114,3.3149256 31.232491,3.3853579 29.283836,3.9441132 29.426834,3.8444945 29.104206,4.8679919 l -0.301892,0.9577203 -1.846664,0 -1.846652,0 -0.454236,-0.8963894 c -0.24983,-0.4930141 -0.541921,-0.8963893 -0.649094,-0.8963893 -0.473347,0 -2.672531,1.3360862 -3.371559,2.0483512 L 19.865945,6.8639821 18.495527,6.4121182 C 17.516545,6.0893283 16.917864,5.7613753 16.399625,5.2639749 L 15.67416,4.5676895 13.889735,5.0925852 C 12.908296,5.3812764 11.580923,5.6719635 10.940005,5.7385533 9.8594791,5.850823 9.7094773,5.9223609 8.8783092,6.7218087 8.3806159,7.2004986 7.5433524,7.7655285 6.9958915,7.9921417 6.4535759,8.2166334 5.3442941,8.9145144 4.5308207,9.5429909 2.803353,10.877601 2.9184135,10.335847 3.3344457,15.176093 l 0.2826854,3.288709 0.6473365,0.669471 0.6473545,0.669472 -0.3137722,0.995404 C 3.5921756,23.990122 3.2891781,29.19472 3.0849268,46.790706 L 2.9621394,57.3681 3.6257543,61.491489 c 0.3649919,2.267865 0.6675233,4.457738 0.6722921,4.866378 l 0.00861,0.742993 2.2706618,-0.09806 c 2.177276,-0.09403 2.2654807,-0.08403 2.1449522,0.243041 -0.069147,0.187603 -0.5033226,1.297363 -0.9648376,2.466129 L 6.9183,71.836999 7.7189909,72.568447 c 0.4403782,0.4023 1.1839869,1.083024 1.6524579,1.512723 0.468489,0.429699 1.1323012,1.197809 1.4751522,1.706916 l 0.623367,0.925648 -0.734466,1.352771 c -0.403948,0.744021 -0.7990589,1.422916 -0.8780488,1.508647 -0.07899,0.08575 -0.5936966,-0.101644 -1.1440617,-0.416534 -0.5502576,-0.314824 -1.0004602,-0.52385 -1.0004602,-0.464497 0,0.05934 0.2501823,0.603515 0.5559586,1.209259 l 0.5559586,1.101346 -1.6285243,1.537887 -1.6285065,1.537888 0.3323454,2.689168 c 0.1827917,1.479042 0.3075691,2.717625 0.2772711,2.752405 -0.030298,0.03478 -0.5644564,0.24729 -1.1870346,0.47223 L 3.858457,90.403297 3.8040163,91.32736 c -0.047927,0.813229 0.015059,1.011713 0.5243698,1.654843 0.4716443,0.595495 0.6417431,1.06506 0.9189246,2.536596 l 0.3401619,1.805819 -0.937946,0.826949 -0.937946,0.826949 1.1063417,0.479807 1.1063417,0.479807 -0.1030131,0.94544 c -0.2342803,2.15007 -0.5664643,5.78916 -0.5323836,5.83224 0.020139,0.0255 0.7921035,-0.0319 1.7154742,-0.1274 0.9233707,-0.0955 1.7061875,-0.14634 1.7396228,-0.11292 0.078846,0.0788 -0.3218934,1.72128 -0.5110315,2.09451 -0.1167099,0.23028 -0.5747828,0.30677 -2.3183857,0.3871 -1.1951201,0.055 -2.2219879,0.14915 -2.2819204,0.20908 -0.059915,0.0599 -0.2885836,10.85753 -0.5081273,23.99469 -0.2195437,13.13714 -0.4954344,29.51464 -0.6130945,36.39444 -0.1369145,8.00442 -0.151938,12.58795 -0.041772,12.72873 0.1081045,0.13812 0.1129809,0.81299 0.013087,1.81309 -0.087524,0.87619 -0.1349246,1.61727 -0.1053617,1.64683 0.1649895,0.16499 5.6148396,-2.45976 6.1161364,-2.94564 0.3253535,-0.31535 0.7714865,-0.56318 1.0137805,-0.56318 0.2379914,0 1.6452329,-0.5768 3.1271969,-1.28175 l 2.694475,-1.28175 3.138994,0.48925 c 3.099404,0.48308 3.147474,0.49744 3.811287,1.13885 0.36976,0.35728 0.672292,0.70635 0.672292,0.77568 0,0.0693 -0.386739,0.40393 -0.859411,0.7435 -0.737089,0.52955 -0.899538,0.76159 -1.141331,1.63032 -0.161971,0.58191 -0.207783,1.0129 -0.10768,1.0129 0.09584,0 0.6604,-0.12598 1.254587,-0.27995 l 1.08034,-0.27994 0.648675,0.51546 c 0.971525,0.77203 0.955946,0.76652 3.182386,1.12391 2.021513,0.32451 2.137847,0.32439 4.827995,-0.005 l 2.756564,-0.33772 1.500526,-0.97803 1.500532,-0.97805 2.109545,0.50009 2.109549,0.5001 2.958216,-0.98798 2.958217,-0.98797 1.639137,0.49009 c 0.901523,0.26957 2.12319,0.77606 2.714807,1.12556 0.941328,0.55611 1.523467,0.71929 4.661224,1.30658 l 3.585558,0.67111 0.806748,-0.87837 c 0.443713,-0.4831 0.864478,-0.87836 0.93503,-0.87832 0.07056,4e-5 0.181794,0.40345 0.247194,0.89646 0.08679,0.65429 0.197409,0.89797 0.409555,0.90225 0.15985,0.003 0.837891,0.0764 1.506747,0.16264 1.123343,0.14482 1.301133,0.23109 2.330612,1.131 1.052552,0.92005 1.205315,0.99171 2.748127,1.28902 l 1.633627,0.31481 0.921214,-0.66182 c 0.506669,-0.364 0.883762,-0.72243 0.83798,-0.79649 -0.04578,-0.0741 -1.028571,-0.18868 -2.183993,-0.25467 -1.155416,-0.066 -2.131882,-0.15109 -2.169919,-0.18914 -0.03807,-0.0381 0.139305,-0.48057 0.3941,-0.98339 0.551591,-1.0885 0.394358,-1.06932 3.773871,-0.46062 1.94391,0.35011 2.873729,0.43143 4.123391,0.36058 0.887426,-0.0503 3.204754,-0.13908 5.149626,-0.19727 l 3.53613,-0.10581 0.483812,0.98647 0.483811,0.98648 1.537672,0.2822 c 0.845719,0.15522 1.712038,0.28206 1.925152,0.28184 0.213107,0 1.329548,-0.40373 2.480972,-0.89674 1.151418,-0.49302 2.146847,-0.89625 2.21205,-0.89607 0.06521,1.8e-4 0.347632,0.36291 0.627616,0.80609 0.279978,0.44315 0.580502,0.84992 0.667828,0.90388 0.08733,0.054 1.647898,-0.40341 3.467945,-1.01642 l 3.309166,-1.11455 2.83556,0.49927 c 1.55956,0.27458 2.85655,0.51797 2.88221,0.54085 0.0256,0.0229 -0.0814,0.66078 -0.2379,1.41758 -0.15651,0.75681 -0.25818,1.45165 -0.22593,1.54412 0.0323,0.0925 1.01745,-0.25194 2.18934,-0.76532 z"
       inkscape:connector-curvature="0" />
  </g>
</svg>
